<svg 
 xmlns="http://www.w3.org/2000/svg"
 xmlns:xlink="http://www.w3.org/1999/xlink"
 width="10px" height="10px">
<path fill-rule="evenodd"  fill="rgb(83, 181, 222)"
 d="M6.572,5.081 L9.532,8.041 C9.724,8.233 9.724,8.545 9.532,8.737 L8.487,9.782 C8.295,9.974 7.983,9.974 7.791,9.782 L4.831,6.822 L1.872,9.782 C1.679,9.974 1.368,9.974 1.175,9.782 L0.131,8.737 C-0.061,8.545 -0.061,8.233 0.131,8.041 L3.090,5.081 L0.131,2.122 C-0.061,1.929 -0.061,1.617 0.131,1.425 L1.175,0.381 C1.368,0.188 1.679,0.188 1.872,0.381 L4.831,3.340 L7.791,0.381 C7.983,0.188 8.295,0.188 8.487,0.381 L9.532,1.425 C9.724,1.617 9.724,1.929 9.532,2.122 L6.572,5.081 Z"/>
</svg>